PathFileType	4	(X/Y/Z)	E:\Qualisys_Data\Carbon_Farble_Plate\Data\Amateur_Runner\S1\T1\S1T1V23_c3d.trc
DataRate	CameraRate	NumFrames	NumMarkers	Units	OrigDataRate	OrigDataStartFrame	OrigNumFrames
200.000000	200.000000	4	39	mm	200.000000	102	273
Frame#	Time	LSHO			RSHO			LICST			RICST			LASIS			LHEEL			RASIS			LTROC			RTROC			SACR			LTH1			LSK4			LTH2			LTH3			RHM5			LSK2			LTH4			RTH1			LTOE			RTH2			RTH3			RTH4			LLEP			RLEP			LSK1			LSK3			RSK1			LHM5			RSK2			LFT1			RSK3			RSK4			LLME			RLME			RTOE			RHEEL			RFT1			RFT2			LFT2			
		X1	Y1	Z1	X2	Y2	Z2	X3	Y3	Z3	X4	Y4	Z4	X5	Y5	Z5	X6	Y6	Z6	X7	Y7	Z7	X8	Y8	Z8	X9	Y9	Z9	X10	Y10	Z10	X11	Y11	Z11	X12	Y12	Z12	X13	Y13	Z13	X14	Y14	Z14	X15	Y15	Z15	X16	Y16	Z16	X17	Y17	Z17	X18	Y18	Z18	X19	Y19	Z19	X20	Y20	Z20	X21	Y21	Z21	X22	Y22	Z22	X23	Y23	Z23	X24	Y24	Z24	X25	Y25	Z25	X26	Y26	Z26	X27	Y27	Z27	X28	Y28	Z28	X29	Y29	Z29	X30	Y30	Z30	X31	Y31	Z31	X32	Y32	Z32	X33	Y33	Z33	X34	Y34	Z34	X35	Y35	Z35	X36	Y36	Z36	X37	Y37	Z37	X38	Y38	Z38	X39	Y39	Z39	

103	0.51	-600.247802734375	1474.234252929688	-537.8535766601562	-640.0347290039062	1490.5830078125	-206.9013366699219	-647.1782836914062	1021.391967773438	-494.4397888183594	-650.4238891601562	1040.542114257812	-192.9503936767578	-603.5794067382812	983.105712890625	-466.2533569335938	-996.04541015625	124.433235168457	-370.2146911621094	-608.7203369140625	995.0463256835938	-201.0913238525391	-720.1292114257812	903.017822265625	-507.0565490722656	-707.0945434570312	899.1033935546875	-168.7890625	-766.9362182617188	1044.065673828125	-340.5727233886719	-608.9069213867188	741.5408325195312	-488.4779968261719	-901.6908569335938	270.1149291992188	-411.9281005859375	-691.0050048828125	742.5380859375	-510.514404296875	-617.9174194335938	639.0403442382812	-470.3567199707031	-681.94140625	209.4978485107422	-171.1951599121094	-843.912109375	345.1423950195312	-453.9174499511719	-702.8736572265625	645.732421875	-484.0347290039062	-530.30078125	848.1801147460938	-182.9061431884766	-748.1347045898438	58.90961456298828	-379.3140258789062	-590.1384887695312	800.4540405273438	-156.7509002685547	-465.8981628417969	768.9445190429688	-180.3294677734375	-530.041259765625	719.8192749023438	-163.4477081298828	-685.8733520507812	490.130859375	-444.4226379394531	-420.5279541015625	592.9805908203125	-195.9173278808594	-777.009765625	296.7923889160156	-436.4515991210938	-840.8502197265625	218.9797058105469	-428.1147155761719	-545.0645751953125	461.6037292480469	-188.2235412597656	-816.1591186523438	59.20953369140625	-439.3232727050781	-598.28466796875	522.3035278320312	-205.5906066894531	-989.3499145507812	99.57233428955078	-341.9000549316406	-616.6295166015625	392.24951171875	-201.6504058837891	-667.3601684570312	451.265625	-228.5168762207031	-932.39453125	138.5163726806641	-419.7920227050781	-734.9071655273438	333.4713134765625	-207.73291015625	-607.8573608398438	178.9551696777344	-239.2738952636719	-809.0736694335938	335.982421875	-259.9827880859375	-814.1611328125	303.4714660644531	-289.5212707519531	-821.5867919921875	316.0979309082031	-232.8636779785156	-998.6156005859376	95.45391845703124	-395.2422180175781
104	0.515	-576.9989013671875	1477.84912109375	-536.5358276367188	-621.5308227539062	1493.718994140625	-206.4203338623047	-623.7156982421875	1022.509826660156	-495.0353088378906	-629.022705078125	1044.281494140625	-193.5653076171875	-581.048095703125	984.2023315429688	-465.618408203125	-991.5368041992188	132.3034973144531	-370.876220703125	-587.6683959960938	999.2459106445312	-201.2397003173828	-698.5716552734375	905.0025024414062	-507.5971374511719	-685.6019287109375	903.3629760742188	-168.4809112548828	-744.9230346679688	1047.264038085938	-342.3985595703125	-590.5593872070312	742.173583984375	-485.666259765625	-895.568359375	276.7278442382812	-411.096435546875	-672.421630859375	745.2973022460938	-510.0311889648438	-602.228271484375	640.1069946289062	-468.0894165039062	-638.6431884765625	202.1256408691406	-170.7536163330078	-836.66552734375	351.0016479492188	-452.8299865722656	-686.9414672851562	648.7670288085938	-483.1448669433594	-508.60498046875	854.19580078125	-183.3329772949219	-747.7595825195312	58.89408493041992	-378.8618774414062	-568.156494140625	805.6454467773438	-157.1148223876953	-443.4683532714844	775.4346313476562	-180.8739776611328	-506.5429077148438	725.814697265625	-164.1850891113281	-675.6494750976562	492.8096923828125	-443.1930847167969	-395.3622436523438	599.7533569335938	-195.8201751708984	-770.974609375	302.0194702148438	-436.8591003417969	-836.4437866210938	225.0181121826172	-428.0572509765625	-514.2152709960938	461.8837585449219	-187.7545471191406	-815.9036254882812	60.35923004150391	-438.9380798339844	-570.8438110351562	519.4981079101562	-205.1943054199219	-985.9364624023438	107.7046813964844	-342.9349365234375	-582.255859375	389.2583618164062	-200.6057586669922	-636.0228271484375	445.1058959960938	-227.7756958007812	-927.9545288085938	145.1910095214844	-420.0943603515625	-697.7378540039062	323.6694641113281	-206.7773895263672	-563.0048828125	176.1208343505859	-239.0407562255859	-771.3783569335938	322.52197265625	-258.8204040527344	-775.1214599609375	289.8881225585938	-288.7084655761719	-783.4349365234375	301.6620178222656	-232.1007232666016	-994.9971313476562	103.413215637207	-395.7648620605469
105	0.52	-553.7911987304688	1481.65087890625	-534.9325561523438	-603.1284790039062	1497.06005859375	-205.9838409423828	-600.8656616210938	1024.563598632812	-493.9752807617188	-606.9769287109375	1047.800048828125	-194.2477874755859	-559.0652465820312	985.4066162109376	-464.3899230957031	-986.9461669921876	139.698974609375	-371.7756042480469	-566.263916015625	1003.33642578125	-201.0318298339844	-676.1636352539062	907.3486328125	-507.5463256835938	-664.0800170898438	907.2279052734376	-168.268310546875	-722.4567260742188	1050.015380859375	-343.8190612792969	-571.8871459960938	743.5048828125	-483.0382690429688	-888.2372436523438	283.9301147460938	-410.439208984375	-652.7567749023438	747.9228515625	-509.2469482421875	-586.3829345703125	641.1727294921875	-465.3973388671875	-594.7882080078125	195.4832611083984	-169.9461364746094	-829.0608520507812	357.9304809570312	-452.3500366210938	-670.5440063476562	652.0062866210938	-483.2381591796875	-486.7747497558594	859.71435546875	-183.7577972412109	-746.6609497070312	58.85292816162109	-378.5843200683594	-545.45263671875	810.36669921875	-157.6878662109375	-421.2071533203125	781.4757690429688	-181.1852264404297	-483.4138793945312	730.7739868164062	-165.1031036376953	-664.7713623046875	496.3224487304688	-442.6473999023438	-371.38427734375	605.9412841796875	-195.6867065429688	-763.87158203125	307.5441284179688	-437.3625793457031	-829.9852294921875	231.7496643066406	-428.7712707519531	-484.2850036621094	461.8054504394531	-187.0442047119141	-815.1347045898438	61.67016220092773	-438.7363586425781	-543.5427856445312	516.9237670898438	-204.6394500732422	-982.1795654296876	114.4510955810547	-343.2540588378906	-548.4440307617188	385.8646545410156	-200.129150390625	-604.7447509765625	438.9421691894531	-227.1387481689453	-922.7371826171876	152.1897277832031	-420.2066955566406	-660.033203125	313.8154296875	-205.8254241943359	-517.9017944335938	173.8793487548828	-238.2866516113281	-733.6561889648438	309.0069274902344	-257.9859619140625	-734.479736328125	276.3352966308594	-288.0038757324219	-744.6777954101562	287.2984313964844	-231.0413513183594	-990.9186401367188	110.775520324707	-396.2425842285156
106	0.525	-530.5830688476562	1485.544555664062	-533.3291625976562	-584.4654541015625	1500.279541015625	-205.3623809814453	-577.6329956054688	1025.7724609375	-493.4740295410156	-586.4857788085938	1051.412353515625	-194.6699066162109	-534.3117065429688	987.2055053710938	-465.9367370605469	-982.3132934570312	147.0829925537109	-371.6474914550781	-547.420166015625	1005.449584960938	-201.0074005126953	-653.79052734375	909.7286987304688	-507.6911315917969	-642.0673217773438	911.6455078125	-168.2431793212891	-700.3392333984375	1053.114868164062	-344.9526672363281	-552.97314453125	744.6419677734375	-479.7366638183594	-880.1478271484375	291.2979431152344	-409.8532104492188	-633.0827026367188	750.8341674804688	-508.5268859863281	-570.2374267578125	643.2623901367188	-462.3782043457031	-550.8907470703125	189.0055999755859	-169.8960266113281	-820.6610717773438	364.4844055175781	-450.7453002929688	-653.2865600585938	655.5896606445312	-482.5426940917969	-464.7517700195312	864.5476684570312	-184.5664367675781	-745.437744140625	58.39410400390625	-378.4971618652344	-522.9365234375	814.887939453125	-158.0443115234375	-398.2323608398438	787.206298828125	-181.549072265625	-460.6042175292969	736.173095703125	-165.7082366943359	-653.0615844726562	500.1140441894531	-442.1141662597656	-348.1969909667969	611.7938842773438	-195.65234375	-755.8866577148438	313.2664184570312	-438.0340576171875	-822.8545532226562	238.1715698242188	-430.0614624023438	-453.9557495117188	461.4628601074219	-186.3136138916016	-813.1317138671875	63.07981491088867	-438.8546142578125	-515.3145141601562	512.7018432617188	-203.9858551025391	-978.6387939453124	120.9921417236328	-343.4714660644531	-514.53515625	382.4690856933594	-199.4582214355469	-573.2767944335938	432.297607421875	-226.5806427001953	-916.7002563476562	159.0440826416016	-420.6387634277344	-622.550537109375	303.8380432128906	-205.1269989013672	-472.7039489746094	171.9397430419922	-238.0060577392578	-695.4974365234375	295.7595520019531	-256.1221008300781	-694.8023071289062	263.201171875	-286.9719848632812	-705.2488403320312	273.5601501464844	-229.6088714599609	-986.9086303710938	118.2404098510742	-396.1841125488281
